:SAMPLES-PER-SECOND 24
:FULLY-SPECIFIED
:DEGREES
37
root  -3.5803 38.0342 17.8639 153.169 -23.5704 -168.732
RightUpLeg  -23.2255 -29.9265 -19.9057
RightLeg  118.662 -5.26513 9.47932
RightFoot  38.5315 -6.7614 15.0678
RightToes  -1.46203e-006 3.27826e-006 1.63871e-007
Spine  7.26952 -1.15897 -1.46367
Spine1  12.0157 -7.40596 10.0755
HEad  13.1185 -12.146 0.166947
LeftShoulder1  2.1515 -4.26887 -21.3111
LeftArm  38.0141 -45.9914 -78.7171
LeftForeArm  69.1012 -78.8454 -60.1574
LeftHand  -0.907199 0.722822 22.489
RightShoulder  2.03499 3.93756 21.0506
RightArm  -25.1151 22.624 29.1408
RightForeArm  158.966 71.5872 149.767
RightHand  -1.073 0.316421 -21.6333
LeftUpLeg  0.743845 4.0919 -4.50331
LeftLeg  20.2718 30.0176 7.37279
LeftFoot  0.259826 -1.1809 12.2268
LeftToes  1.24767e-006 1.47042e-008 1.32732e-009
38
root  -3.92226 38.5398 18.6274 159.251 -10.1829 -175.434
RightUpLeg  -20.2288 -25.2191 -15.9158
RightLeg  109.482 -1.76689 5.40869
RightFoot  33.8811 -5.24427 13.1606
RightToes  -1.46203e-006 3.27826e-006 1.63871e-007
Spine  8.27631 0.927427 -0.95491
Spine1  8.87777 -4.05564 8.9518
HEad  12.5705 -2.71561 -1.92829
LeftShoulder1  2.12643 -4.30685 -20.8241
LeftArm  24.9483 -37.7356 -66.602
LeftForeArm  94.9367 -79.9442 -93.5103
LeftHand  -0.619288 2.33049 23.3154
RightShoulder  1.86412 3.81494 19.0349
RightArm  -15.1204 31.9215 40.8128
RightForeArm  168.506 66.8658 156.962
RightHand  -1.37644 1.58553 -22.861
LeftUpLeg  -1.94583 7.33101 -6.58332
LeftLeg  22.221 6.1151 0.275336
LeftFoot  2.48337 -0.282648 1.9971
LeftToes  1.24767e-006 1.47042e-008 1.32732e-009
39
root  -4.15129 38.2171 19.2965 162.802 2.47475 -178.834
RightUpLeg  -14.5531 -20.5069 -15.5106
RightLeg  100.429 0.319115 0.0342871
RightFoot  29.8365 -3.72448 10.4627
RightToes  -1.46203e-006 3.27826e-006 1.63871e-007
Spine  7.40657 2.27359 2.26227
Spine1  9.87629 -0.86078 4.43726
HEad  8.72099 5.01053 -1.85537
LeftShoulder1  1.9116 -4.51117 -17.1937
LeftArm  15.7829 -31.3997 -58.8867
LeftForeArm  112.537 -78.3488 -117.862
LeftHand  -0.255185 4.16139 23.6872
RightShoulder  1.79289 3.91144 17.6322
RightArm  -8.19858 38.9331 52.5573
RightForeArm  168.49 64.8251 158.95
RightHand  -1.09516 0.45939 -21.6611
LeftUpLeg  -5.35039 9.99109 -7.34479
LeftLeg  27.24 -11.7889 -6.16436
LeftFoot  -0.0424928 -0.299841 3.0333
LeftToes  1.24767e-006 1.47042e-008 1.32732e-009
40
root  -4.43588 37.8339 19.9962 165.574 15.5615 179.146
RightUpLeg  -8.79459 -15.1365 -17.2776
RightLeg  88.839 0.355389 -4.19651
RightFoot  23.5429 -1.47207 5.21114
RightToes  -1.46203e-006 3.27826e-006 1.63871e-007
Spine  4.91193 3.89176 6.20267
Spine1  14.0035 2.38028 -0.63995
HEad  4.07116 12.2752 -3.86192
LeftShoulder1  1.72284 -4.09023 -15.9473
LeftArm  8.61338 -28.484 -50.409
LeftForeArm  120.65 -76.8388 -128.129
LeftHand  -0.0320115 5.25321 24.0843
RightShoulder  1.74895 3.88736 17.0738
RightArm  -1.14918 46.3405 62.237
RightForeArm  161.396 65.91 157.117
RightHand  -0.73807 -1.55956 -22.1921
LeftUpLeg  -9.79688 7.59591 -8.09046
LeftLeg  26.8283 -3.39994 -1.50017
LeftFoot  -0.119865 -0.678565 6.88669
LeftToes  1.24767e-006 1.47042e-008 1.32732e-009
41
root  -4.56611 37.498 20.8845 168.356 28.2358 177.826
RightUpLeg  -4.19671 -11.1372 -20.0525
RightLeg  75.7229 -1.10157 -6.04557
RightFoot  18.9606 -0.411996 2.02412
RightToes  -1.46203e-006 3.27826e-006 1.63871e-007
Spine  3.02642 5.68256 6.95258
Spine1  16.9324 4.625 -1.83272
HEad  -0.838095 19.674 -7.80809
LeftShoulder1  1.68876 -3.1023 -19.0701
LeftArm  2.94013 -25.1853 -40.8123
LeftForeArm  127.013 -76.5893 -130.707
LeftHand  0.0535119 5.67592 23.4287
RightShoulder  1.89115 4.01586 18.6843
RightArm  7.04998 51.0934 67.7327
RightForeArm  155.15 67.8424 154.268
RightHand  -0.623341 -2.41665 -24.0325
LeftUpLeg  -16.4876 12.6349 -7.10334
LeftLeg  27.6963 5.89012 3.72456
LeftFoot  0.490116 -0.789737 7.58275
LeftToes  1.24767e-006 1.47042e-008 1.32732e-009
42
root  -4.55929 37.4253 21.8676 170.9 37.5849 178.34
RightUpLeg  2.20581 -10.6054 -22.9653
RightLeg  60.6534 -1.74215 -3.73057
RightFoot  15.5331 -0.715792 3.3687
RightToes  -1.46203e-006 3.27826e-006 1.63871e-007
Spine  2.46315 5.94585 7.35852
Spine1  17.1116 5.48673 -2.13576
HEad  -5.60694 26.0922 -10.0276
LeftShoulder1  1.75732 -2.77123 -21.6401
LeftArm  -0.391283 -18.0456 -35.0564
LeftForeArm  127.805 -77.8551 -125.51
LeftHand  0.0420272 5.632 22.4012
RightShoulder  2.333 4.62905 22.46
RightArm  11.7855 48.3052 66.4665
RightForeArm  153.123 67.4452 154.489
RightHand  -0.536662 -2.61779 -22.3231
LeftUpLeg  -20.9344 20.7 -4.41677
LeftLeg  28.7752 4.93266 3.2929
LeftFoot  0.329943 -0.620252 6.02688
LeftToes  1.24767e-006 1.47042e-008 1.32732e-009
43
root  -4.52483 37.6377 22.9454 173.588 44.4507 -179.676
RightUpLeg  9.6558 -10.9382 -24.663
RightLeg  44.4004 3.4115 3.27451
RightFoot  7.79126 -1.60852 9.84115
RightToes  -1.46203e-006 3.27826e-006 1.63871e-007
Spine  2.4472 5.23152 9.67763
Spine1  16.4745 6.02065 -4.23717
HEad  -7.92519 31.4977 -10.9407
LeftShoulder1  1.84334 -3.07916 -21.6469
LeftArm  -1.83312 -9.94483 -34.6727
LeftForeArm  99.433 -80.1398 -93.9441
LeftHand  -0.0757264 5.03071 22.982
RightShoulder  2.62862 5.05805 24.6098
RightArm  14.513 39.2587 63.3942
RightForeArm  150.85 65.9104 155.945
RightHand  -0.267195 -3.58794 -16.6009
LeftUpLeg  -22.273 23.9363 -0.538603
LeftLeg  27.1877 6.17159 3.78435
LeftFoot  2.44491 -0.547459 4.40381
LeftToes  1.24767e-006 1.47042e-008 1.32732e-009
